<svg width="32" height="32" viewBox="0 0 32 32" fill="none" xmlns="http://www.w3.org/2000/svg">
<path d="M0.5625 0.131638C0.25 0.30433 0 0.722777 0 1.08145C0.00625 1.39362 0.2125 1.81207 0.44375 1.96483C0.5625 2.03789 1.6 2.48955 2.75 2.97442C3.9 3.45264 4.8625 3.86445 4.8875 3.89102C4.90625 3.91758 5.59375 7.8098 6.40625 12.5389C7.225 17.268 7.925 21.2333 7.96875 21.3529C8.01875 21.4658 8.16875 21.6584 8.31875 21.7647C8.54375 21.944 8.6375 21.9706 8.98125 21.9706C9.19375 21.9706 9.375 21.9905 9.375 22.0104C9.375 22.0303 9.125 22.7942 8.8125 23.7108C8.23125 25.4178 8.16875 25.7299 8.3375 26.082C8.4875 26.3875 8.725 26.5071 9.2875 26.5469L9.8 26.5868L9.55625 27.0185C9.225 27.5897 9.10625 28.0613 9.1 28.7454C9.09375 30.2399 10.0438 31.5085 11.4688 31.9004C12.45 32.1661 13.5 31.8472 14.2875 31.0369C14.9 30.3993 15.2063 29.6222 15.2063 28.7122C15.2 27.9749 15.0188 27.3639 14.65 26.8392C14.5688 26.7262 14.5 26.6133 14.5 26.5934C14.5 26.5735 15.9938 26.5536 17.8188 26.5536H21.1375L20.9875 26.7661C20.075 28.0414 20.2063 29.8812 21.2875 31.0303C21.825 31.6015 22.7125 32 23.4438 32C24.7563 31.9934 25.9938 31.0037 26.3813 29.6487C26.65 28.7056 26.4625 27.5698 25.8938 26.7661L25.7438 26.5536H26.2938C26.6938 26.5536 26.9 26.5203 27.0563 26.434C27.6813 26.1019 27.7125 25.2318 27.1188 24.8598C26.9125 24.727 26.7813 24.727 18.6125 24.7071C14.0438 24.7004 10.3125 24.6805 10.3125 24.6672C10.3125 24.6274 11.05 22.4687 11.15 22.2163L11.2438 21.9706H19.0938C26.8375 21.9706 26.9438 21.9706 27.1875 21.8377C27.35 21.7514 27.4813 21.6119 27.5625 21.4392C27.7438 21.0606 32 6.92641 32 6.70723C32 6.36848 31.7438 5.9434 31.4375 5.77735C31.1625 5.63122 31.025 5.61794 21.0625 5.16628L10.9688 4.70798L10.6875 4.85411C10.3125 5.04673 10.125 5.3589 10.125 5.77735C10.125 5.95668 10.1688 6.18915 10.2188 6.28878C10.3438 6.55446 10.6563 6.8135 10.8938 6.85999C11.0063 6.87992 15.2375 7.09246 20.3 7.32493C25.3688 7.5574 29.525 7.75666 29.5375 7.77659C29.5563 7.79652 28.7563 10.4932 27.7688 13.7743L25.9688 19.7455L17.8625 19.7654L9.7625 19.7787L9.73125 19.6326C9.7125 19.5462 9.04375 15.7138 8.25 11.1109C7.3375 5.83712 6.76875 2.66889 6.7 2.54933C6.64375 2.44306 6.51875 2.29693 6.43125 2.23051C6.2 2.04454 1.3875 0.0386498 1.09375 0.00543977C0.9125 -0.0144863 0.7625 0.0187238 0.5625 0.131638ZM12.675 27.3904C13.5938 27.7956 13.7875 29.0974 13.0313 29.7949C12.7375 30.0738 12.55 30.1469 12.15 30.1469C11.75 30.1469 11.4625 30.0273 11.1938 29.7351C10.9188 29.4428 10.8125 29.1639 10.8125 28.7122C10.8125 27.6893 11.7938 26.9986 12.675 27.3904ZM24.2 27.5233C24.5125 27.7491 24.8125 28.3137 24.8125 28.6657C24.8125 29.4827 24.2188 30.1469 23.475 30.1535C22.3313 30.1668 21.6938 28.8783 22.3438 27.882C22.7375 27.2775 23.6313 27.0982 24.2 27.5233Z" fill="white"/>
</svg>
