<svg width="36" height="32" viewBox="0 0 36 32" fill="none" xmlns="http://www.w3.org/2000/svg">
<path d="M11.3878 0.0990515C7.71545 0.680608 4.49413 3.39788 2.61771 7.45875C1.69964 9.44407 1.43388 10.6774 0.845989 15.7008C0.105086 21.9876 0.00844635 22.9803 0.000393058 24.4542C-0.00766024 26.0385 0.105086 26.6702 0.612444 27.9636C0.870149 28.6354 1.08759 28.9864 1.63521 29.6782C2.91569 31.2725 4.32501 31.9944 6.15311 31.9844C8.0859 31.9744 9.78515 30.9115 10.8562 29.0265C11.0495 28.6956 11.7502 27.0713 12.4025 25.4269L13.6024 22.4489H17.9915H22.3805L23.5804 25.4269C24.2328 27.0713 24.9334 28.6956 25.1267 29.0265C26.8098 31.9744 30.0795 32.8567 32.8417 31.102C33.4377 30.721 33.7115 30.4603 34.3074 29.7183C34.9034 28.9864 35.1047 28.6455 35.3705 27.9636C36.1114 26.0786 36.1597 25.1762 35.7168 21.3459C35.5396 19.7717 35.2255 16.9542 35.0242 15.0691C34.5732 10.7877 34.2833 9.46412 33.3652 7.45875C31.4888 3.34775 28.2675 0.650527 24.5952 0.0890239C23.7818 -0.0312982 12.1689 -0.0312975 11.3878 0.0990515ZM24.5629 3.34775C26.5279 3.76887 28.1386 4.82169 29.5157 6.57639C30.8606 8.30101 31.5935 10.0557 32.0042 12.5424C32.1814 13.6253 32.729 18.007 33.18 21.9977C33.5182 24.9656 33.5102 25.3667 33.0511 26.5198C32.0122 29.1568 28.8473 29.6782 27.3897 27.4322C27.2366 27.2016 26.4716 25.4269 25.6985 23.4917C24.2086 19.7717 24.0153 19.4208 23.4516 19.2904C23.3066 19.2603 20.7537 19.2403 17.774 19.2603C12.4749 19.2904 12.3622 19.2904 12.1367 19.491C11.9756 19.6414 11.4844 20.7443 10.3811 23.4516C8.68185 27.6227 8.50467 27.9436 7.62686 28.485C6.6041 29.1067 5.1545 28.9764 4.15589 28.1742C3.27808 27.4623 2.76267 26.4997 2.60161 25.2865C2.52107 24.6448 2.55329 24.1935 3.2056 18.388C3.58411 14.9689 3.97067 11.8305 4.05925 11.4194C4.28475 10.4267 4.83237 8.99286 5.34778 8.07039C5.87125 7.13789 7.08729 5.65392 7.8443 5.04228C8.89928 4.19 10.0509 3.6285 11.267 3.35777C12.2495 3.13718 23.5482 3.13718 24.5629 3.34775Z" fill="white"/>
</svg>
